<svg width="16" height="18" viewBox="0 0 16 18" fill="none" xmlns="http://www.w3.org/2000/svg">
<path d="M3.1675 7.79C4.4275 10.62 6.4575 12.93 8.93375 14.38L10.8587 12.18C11.095 11.91 11.445 11.82 11.7513 11.94C12.7313 12.31 13.79 12.51 14.875 12.51C15.3563 12.51 15.75 12.96 15.75 13.51V17C15.75 17.55 15.3563 18 14.875 18C6.65875 18 0 10.39 0 1C0 0.45 0.39375 0 0.875 0H3.9375C4.41875 0 4.8125 0.45 4.8125 1C4.8125 2.25 4.9875 3.45 5.31125 4.57C5.4075 4.92 5.3375 5.31 5.0925 5.59L3.1675 7.79Z" fill="#F8F8F8"/>
</svg>
