<svg width="17" height="21" viewBox="0 0 17 21" fill="none" xmlns="http://www.w3.org/2000/svg">
<path d="M8.5 10.5C9.08438 10.5 9.58481 10.2942 10.0013 9.8826C10.4178 9.471 10.6257 8.9768 10.625 8.4C10.625 7.8225 10.4167 7.32795 10.0002 6.91635C9.58375 6.50475 9.08367 6.2993 8.5 6.3C7.91562 6.3 7.41519 6.5058 6.99869 6.9174C6.58219 7.329 6.37429 7.8232 6.375 8.4C6.375 8.9775 6.58325 9.47205 6.99975 9.88365C7.41625 10.2952 7.91633 10.5007 8.5 10.5ZM8.5 21C5.64896 18.6025 3.51971 16.3758 2.11225 14.3199C0.704792 12.264 0.000708333 10.3607 0 8.61C0 5.985 0.854604 3.89375 2.56381 2.33625C4.27302 0.77875 6.25175 0 8.5 0C10.749 0 12.728 0.77875 14.4372 2.33625C16.1465 3.89375 17.0007 5.985 17 8.61C17 10.36 16.2959 12.2633 14.8877 14.3199C13.4796 16.3765 11.3503 18.6032 8.5 21Z" fill="white"/>
</svg>
