<svg width="36" height="47" viewBox="0 0 36 47" fill="none" xmlns="http://www.w3.org/2000/svg">
<path d="M28.7865 45.8708L1.05418 25.2208C0.725018 24.975 0.49131 24.7087 0.35306 24.4219C0.21481 24.1351 0.146783 23.8278 0.148977 23.5C0.148977 23.1722 0.217004 22.8649 0.35306 22.5781C0.489115 22.2913 0.722823 22.025 1.05418 21.7792L28.7865 1.06772C29.5545 0.494111 30.5146 0.207306 31.6667 0.207306C32.8188 0.207306 33.8063 0.514598 34.6292 1.12918C35.4521 1.74376 35.8636 2.46078 35.8636 3.28022C35.8636 4.09967 35.4521 4.81668 34.6292 5.43126L10.4354 23.5L34.6292 41.5688C35.3972 42.1424 35.7813 42.8496 35.7813 43.6903C35.7813 44.5311 35.3698 45.2579 34.5469 45.8708C33.724 46.4854 32.7639 46.7927 31.6667 46.7927C30.5695 46.7927 29.6094 46.4854 28.7865 45.8708Z" fill="#F8F8F8"/>
</svg>
